<svg width="18" height="18" viewBox="0 0 18 18" fill="none" xmlns="http://www.w3.org/2000/svg">
<g id="chevron-down 1">
<g id="Layer 2">
<path id="chevron-down" d="M9.20928 11.7739C9.11665 11.7744 9.02482 11.7567 8.93906 11.7216C8.8533 11.6866 8.7753 11.635 8.70953 11.5698L5.89402 8.75424C5.82839 8.68861 5.77633 8.6107 5.74081 8.52495C5.70529 8.4392 5.68701 8.3473 5.68701 8.25449C5.68701 8.16167 5.70529 8.06977 5.74081 7.98402C5.77633 7.89827 5.82839 7.82036 5.89402 7.75473C5.95965 7.68911 6.03756 7.63705 6.12331 7.60153C6.20905 7.56601 6.30096 7.54773 6.39377 7.54773C6.48658 7.54773 6.57849 7.56601 6.66424 7.60153C6.74998 7.63705 6.8279 7.68911 6.89352 7.75473L9.20928 10.0846L11.5321 7.84624C11.5968 7.77424 11.6757 7.71637 11.7639 7.67626C11.852 7.63615 11.9475 7.61466 12.0443 7.61312C12.1411 7.61159 12.2372 7.63005 12.3266 7.66735C12.4159 7.70465 12.4966 7.75998 12.5636 7.8299C12.6306 7.89981 12.6825 7.98279 12.716 8.07366C12.7494 8.16453 12.7638 8.26132 12.7581 8.35799C12.7525 8.45466 12.7269 8.54912 12.6831 8.63547C12.6393 8.72182 12.5781 8.79819 12.5034 8.85982L9.68792 11.5768C9.5592 11.7009 9.38807 11.7714 9.20928 11.7739Z" fill="#15192C"/>
</g>
</g>
</svg>
