<svg width="13" height="15" viewBox="0 0 13 15" fill="none" xmlns="http://www.w3.org/2000/svg">
<g id="Paper">
<path id="Paper_2" fill-rule="evenodd" clip-rule="evenodd" d="M4.43054 10.1325H8.22173C8.50746 10.1325 8.74441 9.89322 8.74441 9.60463C8.74441 9.31604 8.50746 9.08376 8.22173 9.08376H4.43054C4.14481 9.08376 3.90786 9.31604 3.90786 9.60463C3.90786 9.89322 4.14481 10.1325 4.43054 10.1325ZM6.7861 5.56437H4.43054C4.14481 5.56437 3.90786 5.80369 3.90786 6.09228C3.90786 6.38087 4.14481 6.61315 4.43054 6.61315H6.7861C7.07183 6.61315 7.30878 6.38087 7.30878 6.09228C7.30878 5.80369 7.07183 5.56437 6.7861 5.56437ZM11.7594 4.94891C11.9232 4.94702 12.1016 4.94497 12.2637 4.94497C12.4379 4.94497 12.5773 5.08574 12.5773 5.26171V10.9209C12.5773 12.6665 11.1765 14.0813 9.44814 14.0813H3.90074C2.08878 14.0813 0.611328 12.5961 0.611328 10.766V3.17823C0.611328 1.43261 2.01908 0.0037384 3.75439 0.0037384H7.47588C7.65708 0.0037384 7.79646 0.151553 7.79646 0.327523V2.59401C7.79646 3.88211 8.8488 4.93793 10.1241 4.94497C10.422 4.94497 10.6847 4.94719 10.9145 4.94914C11.0933 4.95066 11.2522 4.952 11.3925 4.952C11.4917 4.952 11.6203 4.95052 11.7594 4.94891ZM11.9519 3.92152C11.379 3.92363 10.7037 3.92152 10.218 3.91659C9.44721 3.91659 8.81233 3.27536 8.81233 2.49687V0.641444C8.81233 0.338072 9.17681 0.187442 9.38519 0.406348C9.76239 0.802482 10.2808 1.34702 10.7968 1.88905C11.3113 2.42957 11.8235 2.9676 12.1909 3.35349C12.3944 3.56676 12.2453 3.92081 11.9519 3.92152Z" fill="#FF6A00"/>
</g>
</svg>
