<svg width="92" height="58" viewBox="0 0 92 58" fill="none" xmlns="http://www.w3.org/2000/svg">
<ellipse cx="19.2264" cy="28.2265" rx="5.40157" ry="17.5461" transform="rotate(-45 19.2264 28.2265)" stroke="#0CD3E0" stroke-width="2.11163"/>
<ellipse cx="19.2265" cy="28.2264" rx="5.40157" ry="17.5461" transform="rotate(45 19.2265 28.2264)" stroke="#0CD3E0" stroke-width="2.11163"/>
<circle cx="4.50659" cy="28.7931" r="2.50659" stroke="#0CD3E0" stroke-width="2.11163"/>
<path d="M37.3523 34V23.8182H43.2585V24.6534H38.282V28.4865H42.9453V29.3217H38.282V33.1648H43.358V34H37.3523ZM49.6023 28.4915V29.3267H45.3665V28.4915H49.6023ZM54.9318 34.1392C54.3054 34.1392 53.7453 34.0265 53.2514 33.8011C52.7576 33.5724 52.3665 33.2559 52.0781 32.8516C51.7898 32.4472 51.6373 31.9815 51.6207 31.4545H52.5604C52.5769 31.8258 52.6913 32.1506 52.9034 32.429C53.1155 32.7041 53.3973 32.9195 53.7486 33.0753C54.0999 33.2277 54.491 33.304 54.9219 33.304C55.3925 33.304 55.8068 33.2161 56.1648 33.0405C56.526 32.8648 56.8078 32.6245 57.0099 32.3196C57.2154 32.0114 57.3182 31.6634 57.3182 31.2756C57.3182 30.8646 57.2138 30.5017 57.005 30.1868C56.7962 29.8719 56.4962 29.6267 56.1051 29.451C55.7173 29.2753 55.2533 29.1875 54.7131 29.1875H54.1165V28.3523H54.7131C55.1539 28.3523 55.5433 28.2727 55.8814 28.1136C56.2228 27.9512 56.4912 27.7242 56.6868 27.4325C56.8823 27.1409 56.9801 26.7978 56.9801 26.4034C56.9801 26.0289 56.8956 25.6991 56.7266 25.4141C56.5575 25.129 56.3189 24.9053 56.0107 24.7429C55.7057 24.5805 55.3494 24.4993 54.9418 24.4993C54.5473 24.4993 54.1861 24.5755 53.858 24.728C53.5298 24.8804 53.2647 25.0959 53.0625 25.3743C52.8636 25.6527 52.7576 25.9825 52.7443 26.3636H51.8445C51.8577 25.8333 52.0036 25.3677 52.282 24.9666C52.5637 24.5623 52.9366 24.2474 53.4006 24.022C53.8679 23.7933 54.3849 23.679 54.9517 23.679C55.5516 23.679 56.0703 23.8016 56.5078 24.0469C56.9453 24.2921 57.2834 24.6186 57.522 25.0263C57.764 25.4306 57.8849 25.8764 57.8849 26.3636C57.8849 26.9437 57.7275 27.4408 57.4126 27.8551C57.0978 28.2661 56.6735 28.5511 56.1399 28.7102V28.7749C56.7895 28.9041 57.3 29.1925 57.6712 29.6399C58.0457 30.084 58.233 30.6293 58.233 31.2756C58.233 31.8191 58.0904 32.308 57.8054 32.7422C57.5204 33.1731 57.1293 33.5144 56.6321 33.7663C56.1383 34.0149 55.5715 34.1392 54.9318 34.1392ZM63.6371 34.1392C63.2161 34.1359 62.8052 34.0514 62.4041 33.8857C62.0031 33.7166 61.6418 33.4465 61.3203 33.0753C60.9988 32.7008 60.7436 32.2069 60.5547 31.5938C60.3658 30.9806 60.2713 30.2266 60.2713 29.3317C60.2713 28.5031 60.3442 27.7441 60.4901 27.0547C60.6359 26.3653 60.8546 25.7687 61.1463 25.2649C61.438 24.7611 61.8026 24.3717 62.2401 24.0966C62.6776 23.8182 63.1896 23.679 63.7763 23.679C64.3265 23.679 64.812 23.7933 65.233 24.022C65.6539 24.2474 65.9953 24.5623 66.2571 24.9666C66.5189 25.371 66.683 25.8366 66.7493 26.3636H65.8345C65.7417 25.8267 65.5213 25.3842 65.1733 25.0362C64.8253 24.6882 64.3596 24.5142 63.7763 24.5142C62.9411 24.5142 62.2947 24.902 61.8374 25.6776C61.38 26.4498 61.1496 27.5469 61.1463 28.9688H61.2109C61.3733 28.6671 61.5821 28.407 61.8374 28.1882C62.0959 27.9661 62.3892 27.7938 62.7173 27.6712C63.0455 27.5452 63.3902 27.4822 63.7514 27.4822C64.3182 27.4822 64.8369 27.6264 65.3075 27.9148C65.7782 28.1998 66.1544 28.5926 66.4361 29.093C66.7178 29.5902 66.8587 30.1586 66.8587 30.7983C66.8587 31.4048 66.7244 31.9633 66.456 32.4737C66.1908 32.9841 65.8163 33.3902 65.3324 33.6918C64.8518 33.9934 64.2867 34.1425 63.6371 34.1392ZM63.6371 33.304C64.0812 33.304 64.4773 33.1913 64.8253 32.9659C65.1766 32.7405 65.4534 32.4389 65.6555 32.0611C65.8577 31.6799 65.9588 31.259 65.9588 30.7983C65.9588 30.3376 65.8577 29.92 65.6555 29.5455C65.4534 29.1709 65.1766 28.8726 64.8253 28.6506C64.4773 28.4285 64.0812 28.3175 63.6371 28.3175C63.299 28.3175 62.9841 28.3871 62.6925 28.5263C62.4008 28.6622 62.1473 28.8494 61.9318 29.0881C61.7197 29.3234 61.5573 29.5935 61.4446 29.8984C61.3352 30.2034 61.2938 30.5232 61.3203 30.858C61.3568 31.3253 61.4777 31.7446 61.6832 32.1158C61.892 32.4837 62.1638 32.7737 62.4986 32.9858C62.8366 33.1979 63.2161 33.304 63.6371 33.304ZM72.1236 34.1392C71.4077 34.1392 70.7962 33.9337 70.2891 33.5227C69.7853 33.1084 69.3975 32.5102 69.1257 31.728C68.8572 30.9458 68.723 30.0062 68.723 28.9091C68.723 27.8153 68.8572 26.879 69.1257 26.1001C69.3975 25.3179 69.7869 24.7197 70.294 24.3054C70.8045 23.8878 71.4143 23.679 72.1236 23.679C72.8329 23.679 73.4411 23.8878 73.9482 24.3054C74.4586 24.7197 74.848 25.3179 75.1165 26.1001C75.3883 26.879 75.5241 27.8153 75.5241 28.9091C75.5241 30.0062 75.3883 30.9458 75.1165 31.728C74.848 32.5102 74.4602 33.1084 73.9531 33.5227C73.4493 33.9337 72.8395 34.1392 72.1236 34.1392ZM72.1236 33.304C72.9091 33.304 73.5223 32.9212 73.9631 32.1555C74.4039 31.3866 74.6243 30.3045 74.6243 28.9091C74.6243 27.9811 74.5232 27.1889 74.321 26.5327C74.1222 25.8731 73.8355 25.3693 73.4609 25.0213C73.0897 24.6733 72.6439 24.4993 72.1236 24.4993C71.3447 24.4993 70.7332 24.8871 70.2891 25.6626C69.8449 26.4349 69.6229 27.517 69.6229 28.9091C69.6229 29.8371 69.7223 30.6293 69.9212 31.2855C70.1233 31.9418 70.41 32.4422 70.7812 32.7869C71.1558 33.1316 71.6032 33.304 72.1236 33.304ZM79.5959 28.1484C79.1882 28.1484 78.817 28.049 78.4822 27.8501C78.1475 27.6513 77.8807 27.3845 77.6818 27.0497C77.483 26.7116 77.3835 26.3388 77.3835 25.9311C77.3835 25.5234 77.483 25.1522 77.6818 24.8175C77.8807 24.4827 78.1475 24.2159 78.4822 24.017C78.817 23.8182 79.1882 23.7188 79.5959 23.7188C80.0036 23.7188 80.3748 23.8182 80.7095 24.017C81.0443 24.2159 81.3111 24.4827 81.5099 24.8175C81.7088 25.1522 81.8082 25.5234 81.8082 25.9311C81.8082 26.3388 81.7088 26.7116 81.5099 27.0497C81.3111 27.3845 81.0443 27.6513 80.7095 27.8501C80.3748 28.049 80.0036 28.1484 79.5959 28.1484ZM79.5959 27.3778C79.8643 27.3778 80.1063 27.3132 80.3217 27.1839C80.5405 27.0547 80.7145 26.8807 80.8438 26.6619C80.9763 26.4432 81.0426 26.1996 81.0426 25.9311C81.0426 25.666 80.9763 25.424 80.8438 25.2053C80.7145 24.9865 80.5405 24.8125 80.3217 24.6832C80.1063 24.554 79.8643 24.4893 79.5959 24.4893C79.3307 24.4893 79.0888 24.554 78.87 24.6832C78.6513 24.8125 78.4756 24.9865 78.343 25.2053C78.2138 25.424 78.1491 25.666 78.1491 25.9311C78.1491 26.1996 78.2138 26.4432 78.343 26.6619C78.4756 26.8807 78.6513 27.0547 78.87 27.1839C79.0888 27.3132 79.3307 27.3778 79.5959 27.3778Z" fill="#2AD8E4"/>
</svg>
