<?xml version="1.0" encoding="utf-8"?>
<!-- Generator: Adobe Illustrator 23.0.1, SVG Export Plug-In . SVG Version: 6.00 Build 0)  -->
<svg version="1.1" xmlns="http://www.w3.org/2000/svg" xmlns:xlink="http://www.w3.org/1999/xlink" x="0px" y="0px"
	 viewBox="0 0 500 500" style="enable-background:new 0 0 500 500;" xml:space="preserve">
<style type="text/css">
	.st0{fill:#FFFFFF;}
	.st1{fill:url(#SVGID_1_);}
	.st2{fill:url(#SVGID_2_);}
	.st3{fill:url(#SVGID_3_);}
	.st4{fill:url(#SVGID_4_);}
	.st5{fill:url(#SVGID_5_);}
	.st6{fill:url(#SVGID_6_);}
	.st7{fill:url(#SVGID_7_);}
	.st8{fill:url(#SVGID_8_);}
	.st9{clip-path:url(#SVGID_10_);}
	.st10{fill:#DDE9ED;}
	.st11{fill:url(#SVGID_11_);}
	.st12{fill:url(#SVGID_12_);}
	.st13{fill:url(#SVGID_13_);}
	.st14{fill:url(#SVGID_14_);}
	.st15{fill:url(#SVGID_15_);}
	.st16{fill:url(#SVGID_16_);}
	.st17{fill:url(#SVGID_17_);}
	.st18{fill:url(#SVGID_18_);}
	.st19{fill:url(#SVGID_19_);}
	.st20{fill:#979D9D;}
	.st21{fill:url(#SVGID_20_);}
	.st22{fill:url(#SVGID_21_);}
	.st23{fill:url(#SVGID_22_);}
	.st24{fill:url(#SVGID_23_);}
	.st25{fill:url(#SVGID_24_);}
	.st26{fill:url(#SVGID_25_);}
	.st27{fill:url(#SVGID_26_);}
	.st28{fill:url(#SVGID_27_);}
	.st29{fill:url(#SVGID_28_);}
	.st30{fill:url(#SVGID_29_);}
	.st31{fill:url(#SVGID_30_);}
	.st32{fill:url(#SVGID_31_);}
	.st33{fill:url(#SVGID_32_);}
	.st34{fill:url(#SVGID_33_);}
	.st35{fill:url(#SVGID_34_);}
	.st36{fill:url(#SVGID_35_);}
	.st37{fill:url(#SVGID_36_);}
	.st38{fill:url(#SVGID_37_);}
	.st39{fill:url(#SVGID_38_);}
	.st40{fill:url(#SVGID_39_);}
	.st41{fill:url(#SVGID_40_);}
	.st42{fill:url(#SVGID_41_);}
	.st43{fill:url(#SVGID_42_);}
	.st44{fill:url(#SVGID_43_);}
	.st45{fill:url(#SVGID_44_);}
	.st46{fill:url(#SVGID_45_);}
	.st47{fill:url(#SVGID_46_);}
	.st48{fill:url(#SVGID_47_);}
	.st49{fill:url(#SVGID_48_);}
	.st50{fill:url(#SVGID_49_);}
	.st51{fill:url(#SVGID_50_);}
	.st52{fill:url(#SVGID_51_);}
	.st53{fill:url(#SVGID_52_);}
	.st54{fill:url(#SVGID_53_);}
	.st55{fill:url(#SVGID_54_);}
	.st56{fill:url(#SVGID_55_);}
	.st57{fill:url(#SVGID_56_);}
	.st58{fill:url(#SVGID_57_);}
	.st59{fill:url(#SVGID_58_);}
	.st60{fill:url(#SVGID_59_);}
	.st61{fill:url(#SVGID_60_);}
	.st62{fill:url(#SVGID_61_);}
	.st63{fill:url(#SVGID_62_);}
	.st64{fill:url(#SVGID_63_);}
	.st65{fill:url(#SVGID_64_);}
	.st66{fill:url(#SVGID_65_);}
	.st67{fill:url(#SVGID_66_);}
	.st68{fill:url(#SVGID_67_);}
	.st69{fill:url(#SVGID_68_);}
	.st70{fill:url(#SVGID_69_);}
	.st71{fill:url(#SVGID_70_);}
	.st72{fill:url(#SVGID_71_);}
	.st73{fill:url(#SVGID_72_);}
	.st74{fill:url(#SVGID_73_);}
	.st75{fill:url(#SVGID_74_);}
	.st76{fill:url(#SVGID_75_);}
	.st77{fill:url(#SVGID_76_);}
	.st78{fill:url(#SVGID_77_);}
	.st79{fill:url(#SVGID_78_);}
	.st80{fill:url(#SVGID_79_);}
	.st81{fill:url(#SVGID_80_);}
	.st82{fill:url(#SVGID_81_);}
	.st83{fill:url(#SVGID_82_);}
	.st84{fill:url(#SVGID_83_);}
	.st85{fill:url(#SVGID_84_);}
</style>
<g id="BACKGROUND">
	<rect class="st0" width="500" height="500"/>
</g>
<g id="OBJECTS">
	<g>
		<g>
			<linearGradient id="SVGID_1_" gradientUnits="userSpaceOnUse" x1="254.495" y1="305.2335" x2="260.4064" y2="169.7648">
				<stop  offset="0" style="stop-color:#A6D7FF"/>
				<stop  offset="1" style="stop-color:#80C4FF"/>
			</linearGradient>
			<path class="st1" d="M410.31,319.45c0,17.54-2.89,34.4-8.21,50.14c-0.45,1.34-0.92,2.66-1.41,3.98H107.05
				c-0.49-1.32-0.96-2.64-1.41-3.98c-5.32-15.74-8.21-32.6-8.21-50.14c0-86.4,70.04-156.44,156.44-156.44
				S410.31,233.05,410.31,319.45z"/>
			<g>
				<path class="st0" d="M332.77,259.44h72.82c-6.06-7.97-11.91-4.71-11.91-4.71c-8.82-15.76-18.96-3.11-18.96-3.11
					c-5.07-8.12-10.3,1.51-10.3,1.51c-6.91-6.91-11.6,2.33-11.6,2.33c-3.9-3.9-7.69,1.09-7.69,1.09L332.77,259.44z"/>
				<path class="st0" d="M297.96,246.03h25c-2.28-3.32-6.2-1.57-6.2-1.57c-2-4.94-8.54-1.39-8.54-1.39
					c-1.76-1.76-4.39,0.86-4.39,0.86L297.96,246.03z"/>
				<path class="st0" d="M196.57,290.73h-31.51c2.87-4.18,7.81-1.98,7.81-1.98c2.52-6.23,10.76-1.75,10.76-1.75
					c2.22-2.22,5.53,1.09,5.53,1.09L196.57,290.73z"/>
				<path class="st0" d="M89.68,232.79c2.77-12.3,23.37-6.77,23.37-6.77c2.46-12.61,11.99-1.24,11.99-1.24
					c4.92-15.06,33.52-10.24,33.52,1.65c5.74-5.74,13.22,1.13,13.22,1.13c10.46-4.61,16.61,5.23,16.61,5.23H89.68z"/>
				<path class="st0" d="M197.04,218.74c2.12-1.46,6.03-1.75,6.03-1.75c1.75-1.75,3.1-0.32,3.1-0.32c1.78-3.7,8.65-2.64,8.65,0.43
					c1.48-1.48,3.41,0.29,3.41,0.29c1.79-0.11,4.29,1.35,4.29,1.35H197.04z"/>
				<path class="st0" d="M112.82,266.98h42.4c-5.38-3.45-15.74-3.76-18.15-2.21c-2.41-5.21-12.05-4.77-14.16-0.84
					c-4.27-1.79-4.97,1.13-4.97,1.13L112.82,266.98z"/>
				<path class="st0" d="M273.86,192.79l17.49-6.09c4.13-8.26,9.84-2.56,9.84-2.56c1.25-9.19,12.88-1.92,12.88-1.92
					c9.24-7.26,13.37,3.92,13.37,3.92c5.87-14.01,19.46,6.65,19.46,6.65H273.86z"/>
			</g>
		</g>
		<g>
			<g>
				<linearGradient id="SVGID_2_" gradientUnits="userSpaceOnUse" x1="369.7156" y1="325.7778" x2="368.9802" y2="378.2311">
					<stop  offset="0" style="stop-color:#A0B858"/>
					<stop  offset="1" style="stop-color:#3E5929"/>
				</linearGradient>
				<path class="st2" d="M319.89,382.31h105.16c-1.73-12.49-11.4-5.49-11.4-5.49c-2.99-21-21.42-11.26-22.34-5.48
					c-2.99-14.91-10.37-11.87-10.37-11.87c0-14.91-12.29-19.46-13.59-17.74c-1.3-10.87-7.6-5.36-7.6-5.36
					c-2.3-13.43-14.05-3.69-14.05-3.69c-1.15-10.65-13.65-6.54-13.65-6.54c-5.07-6.7-10.14,2.48-10.14,2.48
					c-2.77-3.66-8.31-3.66-8.31-3.66L319.89,382.31z"/>
				<linearGradient id="SVGID_3_" gradientUnits="userSpaceOnUse" x1="350.7683" y1="348.2254" x2="350.312" y2="381.9973">
					<stop  offset="0" style="stop-color:#A0B858"/>
					<stop  offset="1" style="stop-color:#3E5929"/>
				</linearGradient>
				<path class="st3" d="M315.53,382.31l-1.09-35.77c7.43-5.94,10.37,4.64,10.37,4.64c5.53-4.64,7.95,11.26,7.95,11.26
					c7.43,0,6.74,5.43,6.74,5.43c5.01,2.63,4.49,6.78,4.49,6.78c6.58-8.69,10.88-1.31,10.88-1.31c0-8.54,8.69-9.94,11.4-6.36
					c3.33-4.4,7.43,3.06,7.43,3.06c5.53-2.05,8.12,8.22,8.12,8.22c3.8-1.6,4.84,4.04,4.84,4.04H315.53z"/>
			</g>
			<g>
				<linearGradient id="SVGID_4_" gradientUnits="userSpaceOnUse" x1="129.0863" y1="338.5931" x2="134.1386" y2="361.0312">
					<stop  offset="0" style="stop-color:#A0B858"/>
					<stop  offset="1" style="stop-color:#3E5929"/>
				</linearGradient>
				<path class="st4" d="M157.31,343.09c-4.49-8.88-13.2-2.34-13.2-2.34c-4.36-9.11-12.8,1.29-12.8,1.29
					c-5.68-9.04-12.27,4.08-12.27,4.08c-8.84-2.58-7.52,5.1-7.52,5.1c-8.58-4.22-5.87,9.87-1.72,14.61
					c4.15,4.74,29.6,2.58,29.6,2.58L157.31,343.09z"/>
				<linearGradient id="SVGID_5_" gradientUnits="userSpaceOnUse" x1="136.9327" y1="321.9516" x2="141.8946" y2="389.1628">
					<stop  offset="0" style="stop-color:#A0B858"/>
					<stop  offset="1" style="stop-color:#3E5929"/>
				</linearGradient>
				<path class="st5" d="M203.84,327.88c-6.83-11.7-23.96-4.81-25.54,5.27c-6.2-4.97-7.66,4.1-7.66,4.1
					c-11.61-9.67-17.55,7.98-17.55,7.98c-11.75-1.99-10.16,9.39-10.16,9.39c-10.69-2.5-11.22,8.42-11.22,8.42
					c-2.64-4.89-9.9-6.52-13.07-1.34c-2.24-8.82-12.27-7.02-14.25-1.6c-2.24-5.27-8.58,0.3-8.58,2.93
					c-12.27-4.29-17.82,9.86-14.52,16.18c-3.7-0.75-6.34,3.47-6.34,3.47h124.38L203.84,327.88z"/>
				<linearGradient id="SVGID_6_" gradientUnits="userSpaceOnUse" x1="173.4481" y1="353.4275" x2="173.7491" y2="392.4153">
					<stop  offset="0" style="stop-color:#A0B858"/>
					<stop  offset="1" style="stop-color:#3E5929"/>
				</linearGradient>
				<path class="st6" d="M199.33,357.87c-4.54-6.65-19.71-5.6-18.92,4.49c-5.28-3.91-9.9,6.54-9.9,6.54
					c-9.37-4.89-11.09,4.92-11.09,4.92c-8.05-7.4-13.59,2.11-10.95,8.87c0.79,0,50.86,0.76,50.86,0
					C199.33,381.93,199.33,357.87,199.33,357.87z"/>
			</g>
		</g>
		<g>
			<linearGradient id="SVGID_7_" gradientUnits="userSpaceOnUse" x1="187.3512" y1="313.1847" x2="230.9606" y2="303.8168">
				<stop  offset="4.065040e-03" style="stop-color:#E9F4F7"/>
				<stop  offset="1" style="stop-color:#CCDEE6"/>
			</linearGradient>
			<polygon class="st7" points="191.03,282.16 233.01,238.02 233.01,368.74 191.03,368.74 			"/>
			<linearGradient id="SVGID_8_" gradientUnits="userSpaceOnUse" x1="316.6183" y1="309.1231" x2="272.6858" y2="302.9854">
				<stop  offset="4.065040e-03" style="stop-color:#E9F4F7"/>
				<stop  offset="1" style="stop-color:#CCDEE6"/>
			</linearGradient>
			<polygon class="st8" points="317.47,282.16 275.49,238.02 275.49,368.74 317.47,368.74 			"/>
			<g>
				<defs>
					<polygon id="SVGID_9_" points="275.49,238.02 275.49,228.69 233.01,228.69 233.01,238.02 191.03,282.16 191.03,368.74 
						233.01,368.74 275.49,368.74 317.47,368.74 317.47,282.16 					"/>
				</defs>
				<clipPath id="SVGID_10_">
					<use xlink:href="#SVGID_9_"  style="overflow:visible;"/>
				</clipPath>
				<g class="st9">
					<rect x="191.03" y="364.91" class="st10" width="126.44" height="0.32"/>
					<rect x="191.03" y="361.09" class="st10" width="126.44" height="0.32"/>
					<rect x="191.03" y="357.27" class="st10" width="126.44" height="0.32"/>
					<rect x="191.03" y="353.45" class="st10" width="126.44" height="0.32"/>
					<rect x="191.03" y="349.62" class="st10" width="126.44" height="0.32"/>
					<rect x="191.03" y="345.8" class="st10" width="126.44" height="0.32"/>
					<rect x="191.03" y="341.98" class="st10" width="126.44" height="0.32"/>
					<rect x="191.03" y="338.15" class="st10" width="126.44" height="0.32"/>
					<rect x="191.03" y="334.33" class="st10" width="126.44" height="0.32"/>
					<rect x="191.03" y="330.51" class="st10" width="126.44" height="0.32"/>
					<rect x="191.03" y="326.69" class="st10" width="126.44" height="0.32"/>
					<rect x="191.03" y="322.86" class="st10" width="126.44" height="0.32"/>
					<rect x="191.03" y="319.04" class="st10" width="126.44" height="0.32"/>
					<rect x="191.03" y="315.22" class="st10" width="126.44" height="0.32"/>
					<rect x="191.03" y="311.4" class="st10" width="126.44" height="0.32"/>
					<rect x="191.03" y="307.57" class="st10" width="126.44" height="0.32"/>
					<rect x="191.03" y="303.75" class="st10" width="126.44" height="0.32"/>
					<rect x="191.03" y="299.93" class="st10" width="126.44" height="0.32"/>
					<rect x="191.03" y="296.11" class="st10" width="126.44" height="0.32"/>
					<rect x="191.03" y="292.28" class="st10" width="126.44" height="0.32"/>
					<rect x="191.03" y="288.46" class="st10" width="126.44" height="0.32"/>
					<rect x="191.03" y="284.64" class="st10" width="126.44" height="0.32"/>
					<rect x="191.03" y="280.82" class="st10" width="126.44" height="0.32"/>
					<rect x="191.03" y="276.99" class="st10" width="126.44" height="0.32"/>
					<rect x="191.03" y="273.17" class="st10" width="126.44" height="0.32"/>
					<rect x="191.03" y="269.35" class="st10" width="126.44" height="0.32"/>
					<rect x="191.03" y="265.53" class="st10" width="126.44" height="0.32"/>
					<rect x="191.03" y="261.7" class="st10" width="126.44" height="0.32"/>
					<rect x="191.03" y="257.88" class="st10" width="126.44" height="0.32"/>
					<rect x="191.03" y="254.06" class="st10" width="126.44" height="0.32"/>
					<rect x="191.03" y="250.24" class="st10" width="126.44" height="0.32"/>
					<rect x="191.03" y="246.41" class="st10" width="126.44" height="0.32"/>
					<rect x="191.03" y="242.59" class="st10" width="126.44" height="0.32"/>
					<rect x="191.03" y="238.77" class="st10" width="126.44" height="0.32"/>
					<rect x="191.03" y="234.73" class="st10" width="126.44" height="0.32"/>
					<rect x="191.03" y="230.69" class="st10" width="126.44" height="0.32"/>
				</g>
			</g>
			<linearGradient id="SVGID_11_" gradientUnits="userSpaceOnUse" x1="242.2274" y1="195.2194" x2="265.109" y2="195.2194">
				<stop  offset="4.065040e-03" style="stop-color:#98A7AB"/>
				<stop  offset="1" style="stop-color:#6E848D"/>
			</linearGradient>
			<path class="st11" d="M257.16,177.56l-3.49-7.17l-3.49,7.17h-7.95v42.49h22.88v-42.49H257.16z M248.38,207.61h-4.36v-19.85
				c0-1.73,0.98-3.13,2.18-3.13c1.21,0,2.18,1.4,2.18,3.13V207.61z M257.04,207.61h-6.75v-18.14c0-2.67,1.51-4.84,3.37-4.84
				s3.37,2.17,3.37,4.84V207.61z M263.32,207.61h-4.36v-19.85c0-1.73,0.97-3.13,2.18-3.13c1.2,0,2.18,1.4,2.18,3.13V207.61z"/>
			<g>
				<linearGradient id="SVGID_12_" gradientUnits="userSpaceOnUse" x1="253.0118" y1="82.7642" x2="254.304" y2="116.0367">
					<stop  offset="4.065040e-03" style="stop-color:#DAF1F7"/>
					<stop  offset="1" style="stop-color:#93B7C7"/>
				</linearGradient>
				<rect x="253.03" y="85.43" class="st12" width="1.69" height="39.09"/>
				<linearGradient id="SVGID_13_" gradientUnits="userSpaceOnUse" x1="253.2979" y1="82.7526" x2="254.5901" y2="116.0258">
					<stop  offset="4.065040e-03" style="stop-color:#DAF1F7"/>
					<stop  offset="1" style="stop-color:#93B7C7"/>
				</linearGradient>
				<polygon class="st13" points="244.18,98.42 244.18,96.78 263.57,96.78 263.57,98.42 				"/>
			</g>
			<linearGradient id="SVGID_14_" gradientUnits="userSpaceOnUse" x1="251.6165" y1="117.7462" x2="253.7701" y2="172.4466">
				<stop  offset="4.065040e-03" style="stop-color:#0E90CC"/>
				<stop  offset="1" style="stop-color:#005E94"/>
			</linearGradient>
			<polygon class="st14" points="253.87,116.77 237.66,175.1 270.09,175.1 			"/>
			<linearGradient id="SVGID_15_" gradientUnits="userSpaceOnUse" x1="252.9864" y1="116.7825" x2="254.2786" y2="201.6328">
				<stop  offset="4.065040e-03" style="stop-color:#0E90CC"/>
				<stop  offset="1" style="stop-color:#005E94"/>
			</linearGradient>
			<polygon class="st15" points="253.87,116.77 246.95,175.1 260.8,175.1 			"/>
			<linearGradient id="SVGID_16_" gradientUnits="userSpaceOnUse" x1="254.3043" y1="167.4489" x2="253.6582" y2="180.8008">
				<stop  offset="4.065040e-03" style="stop-color:#0E90CC"/>
				<stop  offset="1" style="stop-color:#005E94"/>
			</linearGradient>
			<rect x="235.07" y="175.1" class="st16" width="37.61" height="2.46"/>
			<linearGradient id="SVGID_17_" gradientUnits="userSpaceOnUse" x1="239.377" y1="259.8093" x2="279.7561" y2="365.4413">
				<stop  offset="4.065040e-03" style="stop-color:#EBF4F7"/>
				<stop  offset="1" style="stop-color:#D8E5EB"/>
			</linearGradient>
			<rect x="233.01" y="228.69" class="st17" width="42.49" height="140.04"/>
			<g>
				<rect x="233.01" y="364.39" class="st10" width="42.49" height="0.32"/>
				<rect x="233.01" y="360.57" class="st10" width="42.49" height="0.32"/>
				<rect x="233.01" y="356.75" class="st10" width="42.49" height="0.32"/>
				<rect x="233.01" y="352.93" class="st10" width="42.49" height="0.32"/>
				<rect x="233.01" y="349.1" class="st10" width="42.49" height="0.32"/>
				<rect x="233.01" y="345.28" class="st10" width="42.49" height="0.32"/>
				<rect x="233.01" y="341.46" class="st10" width="42.49" height="0.32"/>
				<rect x="233.01" y="337.64" class="st10" width="42.49" height="0.32"/>
				<rect x="233.01" y="333.81" class="st10" width="42.49" height="0.32"/>
				<rect x="233.01" y="329.99" class="st10" width="42.49" height="0.32"/>
				<rect x="233.01" y="326.17" class="st10" width="42.49" height="0.32"/>
				<rect x="233.01" y="322.35" class="st10" width="42.49" height="0.32"/>
				<rect x="233.01" y="318.52" class="st10" width="42.49" height="0.32"/>
				<rect x="233.01" y="314.7" class="st10" width="42.49" height="0.32"/>
				<rect x="233.01" y="310.88" class="st10" width="42.49" height="0.32"/>
				<rect x="233.01" y="307.06" class="st10" width="42.49" height="0.32"/>
				<rect x="233.01" y="303.23" class="st10" width="42.49" height="0.32"/>
				<rect x="233.01" y="299.41" class="st10" width="42.49" height="0.32"/>
				<rect x="233.01" y="295.59" class="st10" width="42.49" height="0.32"/>
				<rect x="233.01" y="291.77" class="st10" width="42.49" height="0.32"/>
				<rect x="233.01" y="287.94" class="st10" width="42.49" height="0.32"/>
				<rect x="233.01" y="284.12" class="st10" width="42.49" height="0.32"/>
				<rect x="233.01" y="280.3" class="st10" width="42.49" height="0.32"/>
				<rect x="233.01" y="276.48" class="st10" width="42.49" height="0.32"/>
				<rect x="233.01" y="272.65" class="st10" width="42.49" height="0.32"/>
				<rect x="233.01" y="268.83" class="st10" width="42.49" height="0.32"/>
				<rect x="233.01" y="265.01" class="st10" width="42.49" height="0.32"/>
				<rect x="233.01" y="261.19" class="st10" width="42.49" height="0.32"/>
				<rect x="233.01" y="257.36" class="st10" width="42.49" height="0.32"/>
				<rect x="233.01" y="253.54" class="st10" width="42.49" height="0.32"/>
				<rect x="233.01" y="249.72" class="st10" width="42.49" height="0.32"/>
				<rect x="233.01" y="245.9" class="st10" width="42.49" height="0.32"/>
				<rect x="233.01" y="242.07" class="st10" width="42.49" height="0.32"/>
				<rect x="233.01" y="238.25" class="st10" width="42.49" height="0.32"/>
				<rect x="233.01" y="234.21" class="st10" width="42.49" height="0.32"/>
				<rect x="233.01" y="230.17" class="st10" width="42.49" height="0.32"/>
			</g>
			<linearGradient id="SVGID_18_" gradientUnits="userSpaceOnUse" x1="253.4848" y1="220.6066" x2="253.9156" y2="229.5439">
				<stop  offset="4.065040e-03" style="stop-color:#0E90CC"/>
				<stop  offset="1" style="stop-color:#005E94"/>
			</linearGradient>
			<polygon class="st18" points="282.37,228.69 225.38,228.69 237.37,220.05 270.38,220.05 			"/>
			<linearGradient id="SVGID_19_" gradientUnits="userSpaceOnUse" x1="254.4465" y1="167.4557" x2="253.8004" y2="180.8078">
				<stop  offset="4.065040e-03" style="stop-color:#0E90CC"/>
				<stop  offset="1" style="stop-color:#005E94"/>
			</linearGradient>
			<polygon class="st19" points="253.87,166.56 245.94,177.56 261.97,177.56 			"/>
			<path class="st20" d="M258.88,177.56l-5-7.17l-5,7.17h-11.4v42.49h32.81v-42.49H258.88z M246.3,207.61h-6.26v-19.85
				c0-1.73,1.4-3.13,3.13-3.13c1.73,0,3.13,1.4,3.13,3.13V207.61z M258.71,207.61h-9.68v-18.14c0-2.67,2.16-4.84,4.84-4.84
				s4.84,2.17,4.84,4.84V207.61z M267.71,207.61h-6.26v-19.85c0-1.73,1.4-3.13,3.13-3.13c1.73,0,3.13,1.4,3.13,3.13V207.61z"/>
			<linearGradient id="SVGID_20_" gradientUnits="userSpaceOnUse" x1="254.2177" y1="219.8306" x2="253.4639" y2="173.6368">
				<stop  offset="4.065040e-03" style="stop-color:#EBF4F7"/>
				<stop  offset="1" style="stop-color:#E1EBF0"/>
			</linearGradient>
			<path class="st21" d="M258.88,177.56l-5-7.17l-5,7.17h-11.4v42.49h32.81v-42.49H258.88z M246.3,207.61h-6.26v-19.85
				c0-1.73,1.4-3.13,3.13-3.13c1.73,0,3.13,1.4,3.13,3.13V207.61z M258.71,207.61h-9.68v-18.14c0-2.67,2.16-4.84,4.84-4.84
				s4.84,2.17,4.84,4.84V207.61z M267.71,207.61h-6.26v-19.85c0-1.73,1.4-3.13,3.13-3.13c1.73,0,3.13,1.4,3.13,3.13V207.61z"/>
			<linearGradient id="SVGID_21_" gradientUnits="userSpaceOnUse" x1="188.4035" y1="260.1613" x2="233.006" y2="260.1613">
				<stop  offset="4.065040e-03" style="stop-color:#0E90CC"/>
				<stop  offset="1" style="stop-color:#005E94"/>
			</linearGradient>
			<polygon class="st22" points="233.01,238.02 188.4,285 188.46,281.82 233.01,235.32 			"/>
			<linearGradient id="SVGID_22_" gradientUnits="userSpaceOnUse" x1="275.4915" y1="260.1613" x2="320.094" y2="260.1613">
				<stop  offset="4.065040e-03" style="stop-color:#0E90CC"/>
				<stop  offset="1" style="stop-color:#005E94"/>
			</linearGradient>
			<polygon class="st23" points="275.49,238.02 320.09,285 320.03,281.82 275.49,235.32 			"/>
			<g>
				<linearGradient id="SVGID_23_" gradientUnits="userSpaceOnUse" x1="216.3631" y1="371.7372" x2="217.3323" y2="390.1502">
					<stop  offset="4.065040e-03" style="stop-color:#D4E0E6"/>
					<stop  offset="1" style="stop-color:#A0B8C8"/>
				</linearGradient>
				<polygon class="st24" points="178.64,374.1 254.25,374.1 254.25,372.53 185.54,372.53 				"/>
				<linearGradient id="SVGID_24_" gradientUnits="userSpaceOnUse" x1="212.6515" y1="371.9325" x2="213.6206" y2="390.3455">
					<stop  offset="4.065040e-03" style="stop-color:#D4E0E6"/>
					<stop  offset="1" style="stop-color:#A0B8C8"/>
				</linearGradient>
				<polygon class="st25" points="171.75,379.34 254.25,379.34 254.25,377.78 178.64,377.78 				"/>
				<linearGradient id="SVGID_25_" gradientUnits="userSpaceOnUse" x1="208.9398" y1="372.1279" x2="209.9089" y2="390.5409">
					<stop  offset="4.065040e-03" style="stop-color:#D4E0E6"/>
					<stop  offset="1" style="stop-color:#A0B8C8"/>
				</linearGradient>
				<polygon class="st26" points="164.86,384.59 254.25,384.59 254.25,383.03 171.75,383.03 				"/>
				<linearGradient id="SVGID_26_" gradientUnits="userSpaceOnUse" x1="291.7198" y1="367.7711" x2="292.689" y2="386.1841">
					<stop  offset="4.065040e-03" style="stop-color:#D4E0E6"/>
					<stop  offset="1" style="stop-color:#A0B8C8"/>
				</linearGradient>
				<polygon class="st27" points="322.96,372.53 254.25,372.53 254.25,374.1 329.86,374.1 				"/>
				<linearGradient id="SVGID_27_" gradientUnits="userSpaceOnUse" x1="294.8805" y1="367.6046" x2="295.8496" y2="386.0176">
					<stop  offset="4.065040e-03" style="stop-color:#D4E0E6"/>
					<stop  offset="1" style="stop-color:#A0B8C8"/>
				</linearGradient>
				<polygon class="st28" points="329.86,377.78 254.25,377.78 254.25,379.34 336.75,379.34 				"/>
				<linearGradient id="SVGID_28_" gradientUnits="userSpaceOnUse" x1="298.0412" y1="367.4383" x2="299.0103" y2="385.8513">
					<stop  offset="4.065040e-03" style="stop-color:#D4E0E6"/>
					<stop  offset="1" style="stop-color:#A0B8C8"/>
				</linearGradient>
				<polygon class="st29" points="336.75,383.03 254.25,383.03 254.25,384.59 343.64,384.59 				"/>
			</g>
			<g>
				<linearGradient id="SVGID_29_" gradientUnits="userSpaceOnUse" x1="211.2668" y1="263.5685" x2="212.2359" y2="313.1541">
					<stop  offset="4.065040e-03" style="stop-color:#0E90CC"/>
					<stop  offset="1" style="stop-color:#005E94"/>
				</linearGradient>
				<path class="st30" d="M201.84,313.01v-22.09c0-5.61,4.57-10.18,10.18-10.18c5.61,0,10.18,4.57,10.18,10.18v22.09H201.84z"/>
				<linearGradient id="SVGID_30_" gradientUnits="userSpaceOnUse" x1="209.3488" y1="241.559" x2="212.5791" y2="313.5955">
					<stop  offset="4.065040e-03" style="stop-color:#F5FDFF"/>
					<stop  offset="1" style="stop-color:#BED7E1"/>
				</linearGradient>
				<path class="st31" d="M203.49,311.36v-20.44c0-4.7,3.83-8.53,8.53-8.53c4.7,0,8.53,3.83,8.53,8.53v20.44H203.49z"/>
				<linearGradient id="SVGID_31_" gradientUnits="userSpaceOnUse" x1="210.9353" y1="241.7824" x2="212.2275" y2="312.2034">
					<stop  offset="4.065040e-03" style="stop-color:#0E90CC"/>
					<stop  offset="1" style="stop-color:#005E94"/>
				</linearGradient>
				<path class="st32" d="M212.02,283.22L212.02,283.22c-4.25,0-7.7,3.45-7.7,7.7v19.61h15.4v-19.61
					C219.72,286.67,216.27,283.22,212.02,283.22z"/>
				<linearGradient id="SVGID_32_" gradientUnits="userSpaceOnUse" x1="209.7785" y1="241.539" x2="213.0089" y2="313.5767">
					<stop  offset="4.065040e-03" style="stop-color:#F5FDFF"/>
					<stop  offset="1" style="stop-color:#BED7E1"/>
				</linearGradient>
				<rect x="204.31" y="290.92" class="st33" width="15.4" height="1.04"/>
				<linearGradient id="SVGID_33_" gradientUnits="userSpaceOnUse" x1="209.4628" y1="241.5531" x2="212.6932" y2="313.5908">
					<stop  offset="4.065040e-03" style="stop-color:#F5FDFF"/>
					<stop  offset="1" style="stop-color:#BED7E1"/>
				</linearGradient>
				<rect x="204.31" y="297.98" class="st34" width="15.4" height="1.04"/>
				<linearGradient id="SVGID_34_" gradientUnits="userSpaceOnUse" x1="209.1472" y1="241.5671" x2="212.3776" y2="313.6048">
					<stop  offset="4.065040e-03" style="stop-color:#F5FDFF"/>
					<stop  offset="1" style="stop-color:#BED7E1"/>
				</linearGradient>
				<rect x="204.31" y="305.03" class="st35" width="15.4" height="1.04"/>
				<linearGradient id="SVGID_35_" gradientUnits="userSpaceOnUse" x1="209.5351" y1="241.5508" x2="212.7655" y2="313.5872">
					<stop  offset="4.065040e-03" style="stop-color:#F5FDFF"/>
					<stop  offset="1" style="stop-color:#BED7E1"/>
				</linearGradient>
				<polygon class="st36" points="211.5,310.54 211.5,283.22 212.53,283.22 212.53,310.54 				"/>
				<linearGradient id="SVGID_36_" gradientUnits="userSpaceOnUse" x1="206.9462" y1="241.6662" x2="210.1766" y2="313.7033">
					<stop  offset="4.065040e-03" style="stop-color:#F5FDFF"/>
					<stop  offset="1" style="stop-color:#BED7E1"/>
				</linearGradient>
				<polygon class="st37" points="212.02,290.96 211.53,291.44 206.07,285.99 206.56,285.5 				"/>
				<linearGradient id="SVGID_37_" gradientUnits="userSpaceOnUse" x1="212.8767" y1="241.4003" x2="216.1071" y2="313.4373">
					<stop  offset="4.065040e-03" style="stop-color:#F5FDFF"/>
					<stop  offset="1" style="stop-color:#BED7E1"/>
				</linearGradient>
				<polygon class="st38" points="212.02,290.96 212.5,291.44 217.96,285.99 217.47,285.5 				"/>
			</g>
			<g>
				<linearGradient id="SVGID_38_" gradientUnits="userSpaceOnUse" x1="295.1761" y1="334.1103" x2="297.1143" y2="369.4825">
					<stop  offset="4.065040e-03" style="stop-color:#F5FDFF"/>
					<stop  offset="1" style="stop-color:#BED7E1"/>
				</linearGradient>
				<path class="st39" d="M285.81,370.38v-24.62c0-5.88,4.78-10.67,10.67-10.67c5.88,0,10.67,4.78,10.67,10.67v24.62H285.81z"/>
				<linearGradient id="SVGID_39_" gradientUnits="userSpaceOnUse" x1="316.5509" y1="354.4612" x2="295.8766" y2="353.0075">
					<stop  offset="4.065040e-03" style="stop-color:#0E90CC"/>
					<stop  offset="1" style="stop-color:#005E94"/>
				</linearGradient>
				<path class="st40" d="M305.5,345.77v22.96h-18.04v-22.96c0-4.98,4.04-9.01,9.01-9.01C301.46,336.76,305.5,340.79,305.5,345.77z"
					/>
				<linearGradient id="SVGID_40_" gradientUnits="userSpaceOnUse" x1="287.1361" y1="351.6525" x2="302.1572" y2="355.0444">
					<stop  offset="4.065040e-03" style="stop-color:#0E90CC"/>
					<stop  offset="1" style="stop-color:#005E94"/>
				</linearGradient>
				<path class="st41" d="M296.48,336.76v31.98h-9.01v-22.96C287.46,340.79,291.5,336.76,296.48,336.76z"/>
				<g>
					<linearGradient id="SVGID_41_" gradientUnits="userSpaceOnUse" x1="298.291" y1="353.3891" x2="298.3719" y2="354.8641">
						<stop  offset="4.065040e-03" style="stop-color:#095C7A"/>
						<stop  offset="1" style="stop-color:#002D42"/>
					</linearGradient>
					<circle class="st42" cx="298.33" cy="354.18" r="0.75"/>
					<linearGradient id="SVGID_42_" gradientUnits="userSpaceOnUse" x1="294.5156" y1="353.3891" x2="294.5964" y2="354.8641">
						<stop  offset="4.065040e-03" style="stop-color:#095C7A"/>
						<stop  offset="1" style="stop-color:#002D42"/>
					</linearGradient>
					<path class="st43" d="M295.31,354.18c0,0.41-0.33,0.75-0.75,0.75c-0.41,0-0.75-0.33-0.75-0.75c0-0.41,0.33-0.75,0.75-0.75
						C294.97,353.43,295.31,353.77,295.31,354.18z"/>
				</g>
				<linearGradient id="SVGID_43_" gradientUnits="userSpaceOnUse" x1="296.961" y1="368.6101" x2="296.2072" y2="343.6827">
					<stop  offset="4.065040e-03" style="stop-color:#095C7A"/>
					<stop  offset="1" style="stop-color:#002D42"/>
				</linearGradient>
				<rect x="296.21" y="336.76" class="st44" width="0.55" height="31.98"/>
			</g>
			<g>
				
					<linearGradient id="SVGID_44_" gradientUnits="userSpaceOnUse" x1="287.5852" y1="334.1103" x2="289.5235" y2="369.4825" gradientTransform="matrix(-1 0 0 1 500.9066 0)">
					<stop  offset="4.065040e-03" style="stop-color:#F5FDFF"/>
					<stop  offset="1" style="stop-color:#BED7E1"/>
				</linearGradient>
				<path class="st45" d="M222.69,370.38v-24.62c0-5.88-4.78-10.67-10.67-10.67c-5.88,0-10.67,4.78-10.67,10.67v24.62H222.69z"/>
				
					<linearGradient id="SVGID_45_" gradientUnits="userSpaceOnUse" x1="308.96" y1="354.4612" x2="288.2857" y2="353.0075" gradientTransform="matrix(-1 0 0 1 500.9066 0)">
					<stop  offset="4.065040e-03" style="stop-color:#0E90CC"/>
					<stop  offset="1" style="stop-color:#005E94"/>
				</linearGradient>
				<path class="st46" d="M203,345.77v22.96h18.04v-22.96c0-4.98-4.04-9.01-9.01-9.01C207.04,336.76,203,340.79,203,345.77z"/>
				
					<linearGradient id="SVGID_46_" gradientUnits="userSpaceOnUse" x1="279.5452" y1="351.6525" x2="294.5663" y2="355.0444" gradientTransform="matrix(-1 0 0 1 500.9066 0)">
					<stop  offset="4.065040e-03" style="stop-color:#0E90CC"/>
					<stop  offset="1" style="stop-color:#005E94"/>
				</linearGradient>
				<path class="st47" d="M212.02,336.76v31.98h9.01v-22.96C221.03,340.79,217,336.76,212.02,336.76z"/>
				<g>
					
						<linearGradient id="SVGID_47_" gradientUnits="userSpaceOnUse" x1="290.7002" y1="353.3891" x2="290.781" y2="354.8641" gradientTransform="matrix(-1 0 0 1 500.9066 0)">
						<stop  offset="4.065040e-03" style="stop-color:#095C7A"/>
						<stop  offset="1" style="stop-color:#002D42"/>
					</linearGradient>
					<circle class="st48" cx="210.16" cy="354.18" r="0.75"/>
					
						<linearGradient id="SVGID_48_" gradientUnits="userSpaceOnUse" x1="286.9247" y1="353.3891" x2="287.0055" y2="354.8641" gradientTransform="matrix(-1 0 0 1 500.9066 0)">
						<stop  offset="4.065040e-03" style="stop-color:#095C7A"/>
						<stop  offset="1" style="stop-color:#002D42"/>
					</linearGradient>
					<path class="st49" d="M213.19,354.18c0,0.41,0.33,0.75,0.75,0.75c0.41,0,0.75-0.33,0.75-0.75c0-0.41-0.33-0.75-0.75-0.75
						C213.53,353.43,213.19,353.77,213.19,354.18z"/>
				</g>
				<linearGradient id="SVGID_49_" gradientUnits="userSpaceOnUse" x1="212.4991" y1="368.6101" x2="211.7453" y2="343.6827">
					<stop  offset="4.065040e-03" style="stop-color:#095C7A"/>
					<stop  offset="1" style="stop-color:#002D42"/>
				</linearGradient>
				<rect x="211.75" y="336.76" class="st50" width="0.55" height="31.98"/>
			</g>
			<g>
				<linearGradient id="SVGID_50_" gradientUnits="userSpaceOnUse" x1="295.6994" y1="261.9183" x2="296.6685" y2="311.504">
					<stop  offset="4.065040e-03" style="stop-color:#0E90CC"/>
					<stop  offset="1" style="stop-color:#005E94"/>
				</linearGradient>
				<path class="st51" d="M286.3,313.01v-22.09c0-5.61,4.57-10.18,10.18-10.18c5.61,0,10.18,4.57,10.18,10.18v22.09H286.3z"/>
				<linearGradient id="SVGID_51_" gradientUnits="userSpaceOnUse" x1="293.644" y1="237.7792" x2="296.8743" y2="309.8156">
					<stop  offset="4.065040e-03" style="stop-color:#F5FDFF"/>
					<stop  offset="1" style="stop-color:#BED7E1"/>
				</linearGradient>
				<path class="st52" d="M305.01,311.36v-20.44c0-4.7-3.83-8.53-8.53-8.53c-4.7,0-8.53,3.83-8.53,8.53v20.44H305.01z"/>
				<linearGradient id="SVGID_52_" gradientUnits="userSpaceOnUse" x1="295.3718" y1="240.2332" x2="296.6639" y2="310.6542">
					<stop  offset="4.065040e-03" style="stop-color:#0E90CC"/>
					<stop  offset="1" style="stop-color:#005E94"/>
				</linearGradient>
				<path class="st53" d="M296.48,283.22L296.48,283.22c4.25,0,7.7,3.45,7.7,7.7v19.61h-15.4v-19.61
					C288.78,286.67,292.23,283.22,296.48,283.22z"/>
				<linearGradient id="SVGID_53_" gradientUnits="userSpaceOnUse" x1="294.0739" y1="237.7589" x2="297.3042" y2="309.7965">
					<stop  offset="4.065040e-03" style="stop-color:#F5FDFF"/>
					<stop  offset="1" style="stop-color:#BED7E1"/>
				</linearGradient>
				<polygon class="st54" points="288.78,291.96 304.18,291.96 304.18,290.92 288.78,290.92 				"/>
				<linearGradient id="SVGID_54_" gradientUnits="userSpaceOnUse" x1="293.7582" y1="237.7729" x2="296.9886" y2="309.8106">
					<stop  offset="4.065040e-03" style="stop-color:#F5FDFF"/>
					<stop  offset="1" style="stop-color:#BED7E1"/>
				</linearGradient>
				<polygon class="st55" points="288.78,299.01 304.18,299.01 304.18,297.98 288.78,297.98 				"/>
				<linearGradient id="SVGID_55_" gradientUnits="userSpaceOnUse" x1="293.4425" y1="237.787" x2="296.6729" y2="309.8246">
					<stop  offset="4.065040e-03" style="stop-color:#F5FDFF"/>
					<stop  offset="1" style="stop-color:#BED7E1"/>
				</linearGradient>
				<polygon class="st56" points="288.78,306.07 304.18,306.07 304.18,305.03 288.78,305.03 				"/>
				<linearGradient id="SVGID_56_" gradientUnits="userSpaceOnUse" x1="293.8305" y1="237.7707" x2="297.0609" y2="309.807">
					<stop  offset="4.065040e-03" style="stop-color:#F5FDFF"/>
					<stop  offset="1" style="stop-color:#BED7E1"/>
				</linearGradient>
				<polygon class="st57" points="297,310.54 297,283.22 295.96,283.22 295.96,310.54 				"/>
				<linearGradient id="SVGID_57_" gradientUnits="userSpaceOnUse" x1="297.1721" y1="237.6202" x2="300.4024" y2="309.6572">
					<stop  offset="4.065040e-03" style="stop-color:#F5FDFF"/>
					<stop  offset="1" style="stop-color:#BED7E1"/>
				</linearGradient>
				<polygon class="st58" points="296.48,290.96 296.97,291.44 302.42,285.99 301.94,285.5 				"/>
				<linearGradient id="SVGID_58_" gradientUnits="userSpaceOnUse" x1="291.2416" y1="237.8861" x2="294.472" y2="309.9232">
					<stop  offset="4.065040e-03" style="stop-color:#F5FDFF"/>
					<stop  offset="1" style="stop-color:#BED7E1"/>
				</linearGradient>
				<polygon class="st59" points="296.48,290.96 296,291.44 290.54,285.99 291.02,285.5 				"/>
			</g>
			<g>
				<linearGradient id="SVGID_59_" gradientUnits="userSpaceOnUse" x1="253.5876" y1="262.7413" x2="254.5567" y2="312.3269">
					<stop  offset="4.065040e-03" style="stop-color:#0E90CC"/>
					<stop  offset="1" style="stop-color:#005E94"/>
				</linearGradient>
				<path class="st60" d="M238.74,313.84v-34.38c0-8.55,6.96-15.51,15.51-15.51c8.55,0,15.51,6.96,15.51,15.51v34.38H238.74z"/>
				<linearGradient id="SVGID_60_" gradientUnits="userSpaceOnUse" x1="251.7373" y1="239.6581" x2="254.9677" y2="311.6947">
					<stop  offset="4.065040e-03" style="stop-color:#F5FDFF"/>
					<stop  offset="1" style="stop-color:#BED7E1"/>
				</linearGradient>
				<path class="st61" d="M240.39,312.19v-32.73c0-7.64,6.22-13.86,13.86-13.86c7.64,0,13.86,6.22,13.86,13.86v32.73H240.39z"/>
				<linearGradient id="SVGID_61_" gradientUnits="userSpaceOnUse" x1="253.2591" y1="241.0057" x2="254.5513" y2="311.4268">
					<stop  offset="4.065040e-03" style="stop-color:#0E90CC"/>
					<stop  offset="1" style="stop-color:#005E94"/>
				</linearGradient>
				<path class="st62" d="M254.25,267.25L254.25,267.25c-6.74,0-12.21,5.46-12.21,12.21v31.08h24.41v-31.08
					C266.45,272.71,260.99,267.25,254.25,267.25z"/>
				<linearGradient id="SVGID_62_" gradientUnits="userSpaceOnUse" x1="252.4226" y1="239.6275" x2="255.6529" y2="311.6639">
					<stop  offset="4.065040e-03" style="stop-color:#F5FDFF"/>
					<stop  offset="1" style="stop-color:#BED7E1"/>
				</linearGradient>
				<rect x="242.04" y="279.46" class="st63" width="24.41" height="1.79"/>
				<linearGradient id="SVGID_63_" gradientUnits="userSpaceOnUse" x1="252.0403" y1="239.6445" x2="255.2706" y2="311.681">
					<stop  offset="4.065040e-03" style="stop-color:#F5FDFF"/>
					<stop  offset="1" style="stop-color:#BED7E1"/>
				</linearGradient>
				<polygon class="st64" points="253.35,310.54 253.35,267.25 255.14,267.25 255.14,310.54 				"/>
				<linearGradient id="SVGID_64_" gradientUnits="userSpaceOnUse" x1="251.9479" y1="239.6488" x2="255.1782" y2="311.6852">
					<stop  offset="4.065040e-03" style="stop-color:#F5FDFF"/>
					<stop  offset="1" style="stop-color:#BED7E1"/>
				</linearGradient>
				<rect x="242.04" y="290.06" class="st65" width="24.41" height="1.79"/>
				<linearGradient id="SVGID_65_" gradientUnits="userSpaceOnUse" x1="251.4732" y1="239.67" x2="254.7036" y2="311.7064">
					<stop  offset="4.065040e-03" style="stop-color:#F5FDFF"/>
					<stop  offset="1" style="stop-color:#BED7E1"/>
				</linearGradient>
				<rect x="242.04" y="300.67" class="st66" width="24.41" height="1.79"/>
				<linearGradient id="SVGID_66_" gradientUnits="userSpaceOnUse" x1="257.3745" y1="239.4055" x2="260.6048" y2="311.4419">
					<stop  offset="4.065040e-03" style="stop-color:#F5FDFF"/>
					<stop  offset="1" style="stop-color:#BED7E1"/>
				</linearGradient>
				<polygon class="st67" points="254.25,279.58 255.03,280.35 263.75,271.63 262.97,270.86 				"/>
				<linearGradient id="SVGID_67_" gradientUnits="userSpaceOnUse" x1="247.8984" y1="239.8303" x2="251.1287" y2="311.8668">
					<stop  offset="4.065040e-03" style="stop-color:#F5FDFF"/>
					<stop  offset="1" style="stop-color:#BED7E1"/>
				</linearGradient>
				<polygon class="st68" points="254.25,279.58 253.47,280.35 244.76,271.63 245.53,270.86 				"/>
			</g>
			<g>
				<linearGradient id="SVGID_68_" gradientUnits="userSpaceOnUse" x1="251.5445" y1="324.3503" x2="255.744" y2="369.8981">
					<stop  offset="4.065040e-03" style="stop-color:#F5FDFF"/>
					<stop  offset="1" style="stop-color:#BED7E1"/>
				</linearGradient>
				<path class="st69" d="M240.39,370.38v-32.73c0-7.64,6.21-13.85,13.85-13.85c7.64,0,13.86,6.21,13.86,13.85v32.73H240.39z"/>
				<linearGradient id="SVGID_69_" gradientUnits="userSpaceOnUse" x1="281.0246" y1="346.6856" x2="253.5667" y2="347.224">
					<stop  offset="4.065040e-03" style="stop-color:#0E90CC"/>
					<stop  offset="1" style="stop-color:#005E94"/>
				</linearGradient>
				<path class="st70" d="M266.46,337.65v31.08h-24.41v-31.08c0-6.74,5.47-12.2,12.2-12.2
					C260.99,325.45,266.46,330.92,266.46,337.65z"/>
				<linearGradient id="SVGID_70_" gradientUnits="userSpaceOnUse" x1="229.6335" y1="346.9023" x2="261.1293" y2="347.2254">
					<stop  offset="4.065040e-03" style="stop-color:#0E90CC"/>
					<stop  offset="1" style="stop-color:#005E94"/>
				</linearGradient>
				<path class="st71" d="M254.25,325.45v43.28h-12.2v-31.08C242.04,330.92,247.51,325.45,254.25,325.45z"/>
				<g>
					
						<linearGradient id="SVGID_71_" gradientUnits="userSpaceOnUse" x1="248.8485" y1="353.3516" x2="248.9414" y2="355.0475" gradientTransform="matrix(-1 0 0 1 500.9066 0)">
						<stop  offset="4.065040e-03" style="stop-color:#095C7A"/>
						<stop  offset="1" style="stop-color:#002D42"/>
					</linearGradient>
					<path class="st72" d="M251.15,354.26c0,0.47,0.38,0.86,0.86,0.86c0.47,0,0.86-0.38,0.86-0.86c0-0.47-0.38-0.86-0.86-0.86
						C251.53,353.4,251.15,353.79,251.15,354.26z"/>
					
						<linearGradient id="SVGID_72_" gradientUnits="userSpaceOnUse" x1="244.5077" y1="353.3516" x2="244.6006" y2="355.0475" gradientTransform="matrix(-1 0 0 1 500.9066 0)">
						<stop  offset="4.065040e-03" style="stop-color:#095C7A"/>
						<stop  offset="1" style="stop-color:#002D42"/>
					</linearGradient>
					<path class="st73" d="M255.49,354.26c0,0.47,0.38,0.86,0.86,0.86c0.47,0,0.86-0.38,0.86-0.86c0-0.47-0.38-0.86-0.86-0.86
						C255.87,353.4,255.49,353.79,255.49,354.26z"/>
				</g>
			</g>
			<g>
				<linearGradient id="SVGID_73_" gradientUnits="userSpaceOnUse" x1="252.1108" y1="237.3838" x2="256.6332" y2="259.7809">
					<stop  offset="4.065040e-03" style="stop-color:#0E90CC"/>
					<stop  offset="1" style="stop-color:#005E94"/>
				</linearGradient>
				<path class="st74" d="M254.25,258.62c-5.87,0-10.64-4.78-10.64-10.65c0-5.87,4.78-10.64,10.64-10.64
					c5.87,0,10.65,4.78,10.65,10.64C264.89,253.84,260.12,258.62,254.25,258.62z"/>
				<linearGradient id="SVGID_74_" gradientUnits="userSpaceOnUse" x1="253.8716" y1="239.5624" x2="257.1019" y2="311.5988">
					<stop  offset="4.065040e-03" style="stop-color:#F5FDFF"/>
					<stop  offset="1" style="stop-color:#BED7E1"/>
				</linearGradient>
				<path class="st75" d="M254.25,256.78c-4.86,0-8.81-3.95-8.81-8.81c0-4.86,3.95-8.81,8.81-8.81c4.86,0,8.81,3.95,8.81,8.81
					C263.06,252.83,259.11,256.78,254.25,256.78z"/>
				<linearGradient id="SVGID_75_" gradientUnits="userSpaceOnUse" x1="254.1206" y1="240.9899" x2="255.4128" y2="311.4109">
					<stop  offset="4.065040e-03" style="stop-color:#0E90CC"/>
					<stop  offset="1" style="stop-color:#005E94"/>
				</linearGradient>
				<path class="st76" d="M261.41,247.97c0,3.95-3.21,7.16-7.16,7.16c-3.95,0-7.16-3.21-7.16-7.16c0-3.95,3.21-7.16,7.16-7.16
					C258.2,240.81,261.41,244.02,261.41,247.97z"/>
				<linearGradient id="SVGID_76_" gradientUnits="userSpaceOnUse" x1="253.8717" y1="239.5625" x2="257.102" y2="311.5988">
					<stop  offset="4.065040e-03" style="stop-color:#F5FDFF"/>
					<stop  offset="1" style="stop-color:#BED7E1"/>
				</linearGradient>
				<rect x="253.65" y="240.81" class="st77" width="1.19" height="14.32"/>
				<linearGradient id="SVGID_77_" gradientUnits="userSpaceOnUse" x1="253.8716" y1="239.5621" x2="257.1021" y2="311.6013">
					<stop  offset="4.065040e-03" style="stop-color:#F5FDFF"/>
					<stop  offset="1" style="stop-color:#BED7E1"/>
				</linearGradient>
				<polygon class="st78" points="247.09,248.57 247.09,247.37 261.41,247.37 261.41,248.57 				"/>
				<linearGradient id="SVGID_78_" gradientUnits="userSpaceOnUse" x1="253.8717" y1="239.5624" x2="257.102" y2="311.5991">
					<stop  offset="4.065040e-03" style="stop-color:#F5FDFF"/>
					<stop  offset="1" style="stop-color:#BED7E1"/>
				</linearGradient>
				<polygon class="st79" points="259.73,252.61 258.89,253.46 248.76,243.33 249.61,242.49 				"/>
				<linearGradient id="SVGID_79_" gradientUnits="userSpaceOnUse" x1="253.8717" y1="239.5624" x2="257.102" y2="311.5991">
					<stop  offset="4.065040e-03" style="stop-color:#F5FDFF"/>
					<stop  offset="1" style="stop-color:#BED7E1"/>
				</linearGradient>
				<polygon class="st80" points="249.61,253.46 248.76,252.61 258.89,242.49 259.73,243.33 				"/>
			</g>
			<g>
				<linearGradient id="SVGID_80_" gradientUnits="userSpaceOnUse" x1="254.1788" y1="365.2896" x2="254.1788" y2="387.9019">
					<stop  offset="4.065040e-03" style="stop-color:#AAC3CF"/>
					<stop  offset="1" style="stop-color:#7D9CB1"/>
				</linearGradient>
				<polygon class="st81" points="254.25,372.53 322.82,372.53 322.82,368.74 254.25,368.74 254.11,368.74 185.54,368.74 
					185.54,372.53 254.11,372.53 				"/>
				<linearGradient id="SVGID_81_" gradientUnits="userSpaceOnUse" x1="254.1788" y1="365.2898" x2="254.1788" y2="387.9017">
					<stop  offset="4.065040e-03" style="stop-color:#AAC3CF"/>
					<stop  offset="1" style="stop-color:#7D9CB1"/>
				</linearGradient>
				<polygon class="st82" points="254.25,377.78 329.71,377.78 329.71,374.1 254.25,374.1 254.11,374.1 178.64,374.1 178.64,377.78 
					254.11,377.78 				"/>
				<linearGradient id="SVGID_82_" gradientUnits="userSpaceOnUse" x1="254.1788" y1="365.2894" x2="254.1788" y2="387.902">
					<stop  offset="4.065040e-03" style="stop-color:#AAC3CF"/>
					<stop  offset="1" style="stop-color:#7D9CB1"/>
				</linearGradient>
				<polygon class="st83" points="254.25,383.03 336.61,383.03 336.61,379.34 254.25,379.34 254.11,379.34 171.75,379.34 
					171.75,383.03 254.11,383.03 				"/>
				<linearGradient id="SVGID_83_" gradientUnits="userSpaceOnUse" x1="254.1788" y1="365.2897" x2="254.1788" y2="387.902">
					<stop  offset="4.065040e-03" style="stop-color:#AAC3CF"/>
					<stop  offset="1" style="stop-color:#7D9CB1"/>
				</linearGradient>
				<polygon class="st84" points="254.25,384.59 254.11,384.59 164.86,384.59 164.86,388.28 254.11,388.28 254.25,388.28 
					343.5,388.28 343.5,384.59 				"/>
			</g>
		</g>
		<linearGradient id="SVGID_84_" gradientUnits="userSpaceOnUse" x1="256.1039" y1="369.691" x2="252.5522" y2="325.9399">
			<stop  offset="4.065040e-03" style="stop-color:#095C7A"/>
			<stop  offset="1" style="stop-color:#002D42"/>
		</linearGradient>
		<rect x="254" y="325.45" class="st85" width="0.55" height="43.28"/>
	</g>
</g>
</svg>
